<?xml version="1.0" encoding="UTF-8" standalone="no"?>
<!-- Created with Inkscape (http://www.inkscape.org/) -->
<svg
   xmlns:svg="http://www.w3.org/2000/svg"
   xmlns="http://www.w3.org/2000/svg"
   version="1.0"
   width="128"
   height="128"
   id="svg2">
  <defs
     id="defs18" />
  <path
     d="M 87.535,17.421505 C 77.0456,17.471715 66.804,21.060055 59.0896,28.489115 C 52.3501,24.190525 45.0552,28.082375 42.4006,35.089195 C 35.553,30.862855 29.0751,35.132285 27.8231,42.734425 C 21.2555,41.671315 18.4032,49.655945 23.6818,53.228105 L 18.5527,53.228105 L 18.5527,64.419565 L 11.0494,64.419565 L 11.0494,90.454415 L 3.1807,90.454415 L 3.1807,88.291645 L 0,88.291645 L 0,98.513464 L 3.1807,98.513464 L 3.1807,96.232898 L 10.8501,96.232898 C 6.2494,98.547354 6.9838,106.7771 13.567,106.90803 L 13.5739,106.88731 C 17.4946,106.74454 19.027,103.49497 19.027,101.23204 C 19.027,101.18351 19.0161,101.13828 19.0149,101.09007 L 32.3932,101.09007 L 32.3932,96.232898 L 34.7101,96.232898 C 34.7098,96.264408 34.7101,96.297978 34.7101,96.329558 C 34.7101,100.87008 38.2778,107.09229 45.3252,107.09452 L 45.3326,107.09452 C 52.152,107.15445 56.217,100.87008 56.217,96.329558 C 56.217,96.297988 56.2173,96.264418 56.217,96.232898 L 58.7121,96.232898 C 58.7118,96.264408 58.7121,96.297978 58.7121,96.329558 C 58.7121,100.86941 62.2986,107.1125 69.5137,107.13596 L 69.5124,107.13596 C 76.5598,107.13373 80.2341,100.87008 80.2341,96.329558 C 80.2341,96.297988 80.2343,96.264418 80.2341,96.232898 L 82.5721,96.232898 C 82.5718,96.264408 82.5721,96.297978 82.5721,96.329558 C 82.572,100.86994 86.0986,107.11291 93.5188,107.0738 L 93.5084,107.0738 C 100.5347,107.00931 104.1027,101.01499 104.082,96.329558 C 104.0819,96.297988 104.0823,96.264418 104.082,96.232898 L 117.1856,96.232898 L 124.8307,96.232898 L 124.8307,98.513464 L 127.9994,98.513464 L 127.9994,88.291645 L 124.8307,88.291645 L 124.8307,90.454415 L 117.1856,90.454415 L 117.1856,69.500275 L 106.42,69.500275 L 106.42,59.151565 L 111.5581,59.151565 L 111.5581,53.228105 L 84.8255,53.228105 L 84.8255,64.419565 L 75.1171,64.419565 L 75.1171,59.151565 L 69.1695,59.151565 L 69.1695,64.419565 L 53.5227,64.419565 C 53.8192,60.830565 51.0848,58.875585 47.9224,58.366215 C 44.642,58.613965 42.1476,61.025035 42.3312,64.419565 L 26.7447,64.419565 L 26.7447,53.868485 C 28.9774,53.711215 30.8573,52.269385 31.6352,50.270915 C 37.0175,54.032175 43.193,51.367075 45.9257,45.806415 C 51.2452,50.148165 57.9649,48.658995 62.1073,43.553015 C 76.054,48.169865 93.4529,43.528445 103.3329,32.702895 C 106.5862,27.007135 102.674,19.697985 94.8087,17.947095 C 92.3897,17.585505 89.9556,17.409915 87.535,17.421505 z "
     style="fill:#000000;fill-opacity:1;fill-rule:evenodd;stroke:none;stroke-width:1px;stroke-linecap:butt;stroke-linejoin:miter;stroke-opacity:1"
     id="path1981" />
</svg>
